<svg width="20" height="21" viewBox="0 0 20 21" fill="none" xmlns="http://www.w3.org/2000/svg">
<path fill-rule="evenodd" clip-rule="evenodd" d="M4.07324 3.44556C3.40014 3.44556 2.85449 3.99121 2.85449 4.66431V16.8518C2.85449 17.5249 3.40014 18.0706 4.07324 18.0706H16.2607C16.9338 18.0706 17.4795 17.5249 17.4795 16.8518V4.66431C17.4795 3.99121 16.9338 3.44556 16.2607 3.44556H4.07324ZM7.34011 6.69777C7.34468 7.47472 6.76311 7.95346 6.07299 7.95003C5.42286 7.9466 4.85614 7.42902 4.85957 6.69891C4.863 6.01222 5.40573 5.46035 6.1107 5.47635C6.82595 5.49235 7.34468 6.01679 7.34011 6.69777ZM10.3942 8.93949H8.34676H8.34561V15.8944H10.5096V15.7321C10.5096 15.4234 10.5094 15.1147 10.5091 14.8059C10.5085 13.9821 10.5078 13.1575 10.512 12.3341C10.5131 12.1341 10.5222 11.9262 10.5736 11.7353C10.7667 11.0224 11.4078 10.5619 12.123 10.6751C12.5823 10.747 12.8862 11.0133 13.0142 11.4463C13.093 11.7171 13.1285 12.0084 13.1319 12.2907C13.1411 13.1419 13.1398 13.993 13.1385 14.8443C13.1381 15.1447 13.1376 15.4454 13.1376 15.7458V15.8932H15.3085V15.7264C15.3085 15.3592 15.3083 14.992 15.3081 14.6248C15.3077 13.7071 15.3072 12.7894 15.3096 11.8713C15.3108 11.4566 15.2662 11.0476 15.1645 10.6465C15.0126 10.05 14.6984 9.55645 14.1876 9.20001C13.8254 8.94634 13.4278 8.78295 12.9834 8.76467C12.9327 8.76257 12.8817 8.75981 12.8304 8.75704C12.6032 8.74476 12.3722 8.73228 12.1549 8.77609C11.5334 8.90063 10.9873 9.18514 10.5748 9.68669C10.5268 9.74422 10.48 9.80264 10.41 9.88982L10.3942 9.90956V8.93949ZM5.03332 15.8966H7.18708V8.94401H5.03332V15.8966Z" fill="#FF3E54"/>
</svg>
