<svg width="50" height="50" viewBox="0 0 50 50" fill="none" xmlns="http://www.w3.org/2000/svg">
<path fill-rule="evenodd" clip-rule="evenodd" d="M29.1666 12.4112H20.8333C20.2807 12.4112 19.7508 12.6292 19.3601 13.0173C18.9694 13.4054 18.7499 13.9318 18.7499 14.4806V35.1754C18.7499 35.7242 18.9694 36.2506 19.3601 36.6387C19.7508 37.0268 20.2807 37.2448 20.8333 37.2448H29.1666C29.7191 37.2448 30.249 37.0268 30.6397 36.6387C31.0304 36.2506 31.2499 35.7242 31.2499 35.1754V14.4806C31.2499 13.9318 31.0304 13.4054 30.6397 13.0173C30.249 12.6292 29.7191 12.4112 29.1666 12.4112ZM20.8333 8.27222C19.1756 8.27222 17.5859 8.92632 16.4138 10.0906C15.2417 11.2549 14.5833 12.8341 14.5833 14.4806V35.1754C14.5833 36.8219 15.2417 38.4011 16.4138 39.5654C17.5859 40.7297 19.1756 41.3838 20.8333 41.3838H29.1666C30.8242 41.3838 32.4139 40.7297 33.586 39.5654C34.7581 38.4011 35.4166 36.8219 35.4166 35.1754V14.4806C35.4166 12.8341 34.7581 11.2549 33.586 10.0906C32.4139 8.92632 30.8242 8.27222 29.1666 8.27222H20.8333Z" fill="#FF3E54"/>
<path d="M12.5 15.4326L7.27708 14.5676C6.38197 14.4194 5.46511 14.4667 4.59024 14.7061C3.71537 14.9455 2.90347 15.3712 2.21096 15.9537C1.51846 16.5363 0.961962 17.2616 0.580149 18.0794C0.198337 18.8971 0.000367597 19.7876 2.14228e-07 20.6891V30.8647C-0.000237457 31.7664 0.197287 32.6574 0.578835 33.4757C0.960384 34.2939 1.5168 35.0198 2.20937 35.6028C2.90195 36.1858 3.71407 36.6119 4.58924 36.8515C5.46441 37.0911 6.38162 37.1385 7.27708 36.9903L12.5 36.1232V31.9284L6.59167 32.9052C6.29352 32.9544 5.98816 32.9386 5.69677 32.8589C5.40538 32.7792 5.13494 32.6374 4.90422 32.4435C4.6735 32.2495 4.48803 32.008 4.36067 31.7358C4.23331 31.4635 4.16711 31.167 4.16667 30.8667V20.6911C4.1665 20.3906 4.23226 20.0935 4.35935 19.8208C4.48645 19.548 4.67184 19.306 4.90263 19.1116C5.13343 18.9172 5.40408 18.7751 5.69576 18.6951C5.98745 18.6152 6.29317 18.5993 6.59167 18.6486L12.5 19.6274V15.4326ZM37.5 15.4326L42.7229 14.5676C43.618 14.4194 44.5349 14.4667 45.4098 14.7061C46.2846 14.9455 47.0965 15.3712 47.789 15.9537C48.4815 16.5363 49.038 17.2616 49.4198 18.0794C49.8017 18.8971 49.9996 19.7876 50 20.6891V30.8647C50.0002 31.7664 49.8027 32.6574 49.4212 33.4757C49.0396 34.2939 48.4832 35.0198 47.7906 35.6028C47.098 36.1858 46.2859 36.6119 45.4108 36.8515C44.5356 37.0911 43.6184 37.1385 42.7229 36.9903L37.5 36.1232V31.9284L43.4083 32.9052C43.7065 32.9544 44.0118 32.9386 44.3032 32.8589C44.5946 32.7792 44.8651 32.6374 45.0958 32.4435C45.3265 32.2495 45.512 32.008 45.6393 31.7358C45.7667 31.4635 45.8329 31.167 45.8333 30.8667V20.6911C45.8335 20.3906 45.7677 20.0935 45.6406 19.8208C45.5135 19.548 45.3282 19.306 45.0974 19.1116C44.8666 18.9172 44.5959 18.7751 44.3042 18.6951C44.0125 18.6152 43.7068 18.5993 43.4083 18.6486L37.5 19.6274V15.4326Z" fill="#FF3E54"/>
</svg>
