<svg width="20" height="20" viewBox="0 0 20 20" fill="none" xmlns="http://www.w3.org/2000/svg">
<path d="M17.961 6.16323C17.8684 5.81987 17.6876 5.50674 17.4364 5.255C17.1852 5.00325 16.8725 4.82168 16.5293 4.72836C15.257 4.37898 10.1666 4.3733 10.1666 4.3733C10.1666 4.3733 5.07715 4.36761 3.80396 4.70155C3.46103 4.79917 3.14894 4.9833 2.89767 5.23628C2.6464 5.48926 2.46438 5.80258 2.36909 6.14617C2.03352 7.41855 2.03027 10.0575 2.03027 10.0575C2.03027 10.0575 2.02702 12.7095 2.36015 13.9689C2.54702 14.6652 3.09546 15.2153 3.79259 15.403C5.07796 15.7524 10.1545 15.758 10.1545 15.758C10.1545 15.758 15.2448 15.7637 16.5171 15.4306C16.8604 15.3374 17.1734 15.1563 17.4252 14.9051C17.677 14.6538 17.8589 14.3412 17.9528 13.9982C18.2892 12.7266 18.2917 10.0884 18.2917 10.0884C18.2917 10.0884 18.3079 7.43561 17.961 6.16323ZM8.5384 12.5024L8.54246 7.62736L12.7732 10.0689L8.5384 12.5024Z" fill="#FF3E54"/>
</svg>
